<svg width="143" height="48" viewBox="0 0 143 48" fill="none" xmlns="http://www.w3.org/2000/svg">
<g clip-path="url(#clip0_325_1716)">
<path d="M29.8569 0.119141H35.2684V14.0457L43.0274 0.119141H49.4336V20.6906H44.0222V6.76408L36.2631 20.6906H29.8569V0.119141Z" fill="black"/>
<path d="M53.7154 0.119141H59.3656V8.51484L66.9257 0.119141H73.5706L64.976 9.19127L74.6848 20.6906H67.8409L60.5593 12.1357L59.3656 13.4488V20.6906H53.7154V0.119141Z" fill="black"/>
<path d="M62.6564 48.0003C61.6749 48.0003 60.7597 47.8809 59.9109 47.6422C59.062 47.4034 58.3193 47.0321 57.6826 46.528C57.046 46.024 56.542 45.3874 56.1706 44.6181C55.8257 43.8489 55.6533 42.9337 55.6533 41.8726C55.6533 40.7054 55.8523 39.7505 56.2502 39.0077C56.6746 38.2385 57.2051 37.6283 57.8418 37.1774C58.5049 36.7264 59.2477 36.3948 60.07 36.1826C60.9189 35.9439 61.7677 35.7582 62.6166 35.6256C63.4654 35.4929 64.301 35.3868 65.1234 35.3073C65.9457 35.2277 66.6752 35.1083 67.3118 34.9491C67.9484 34.79 68.4525 34.5645 68.8238 34.2727C69.1952 33.9544 69.3676 33.5034 69.3411 32.9198C69.3411 32.3363 69.235 31.8588 69.0228 31.4874C68.8371 31.116 68.5718 30.8375 68.227 30.6518C67.9087 30.4396 67.524 30.307 67.0731 30.2539C66.6486 30.1743 66.1844 30.1345 65.6804 30.1345C64.5663 30.1345 63.6909 30.3733 63.0543 30.8508C62.4176 31.3282 62.0463 32.124 61.9401 33.2382H56.29C56.3695 31.9384 56.7011 30.8508 57.2847 29.9754C57.8683 29.0735 58.611 28.3573 59.513 27.8267C60.4149 27.2962 61.4229 26.9248 62.537 26.7126C63.6511 26.4739 64.7918 26.3545 65.9589 26.3545C66.9935 26.3545 68.0413 26.4341 69.1024 26.5932C70.1634 26.7259 71.1316 27.0044 72.007 27.4288C72.8824 27.8533 73.5986 28.4501 74.1557 29.2194C74.7128 29.9887 74.9913 30.9834 74.9913 32.2036V42.9072C74.9913 43.8356 75.0443 44.7242 75.1504 45.5731C75.2566 46.4219 75.4422 47.0586 75.7075 47.483H69.9777C69.8716 47.1647 69.7788 46.8464 69.6992 46.528C69.6462 46.1832 69.6064 45.8384 69.5798 45.4935C68.6779 46.4219 67.6169 47.0718 66.3966 47.4432C65.1764 47.8146 63.9297 48.0003 62.6564 48.0003ZM64.7652 44.26C65.8794 44.26 66.7415 44.0743 67.3516 43.703C67.9617 43.3316 68.4127 42.8939 68.7045 42.3899C68.9963 41.8593 69.1687 41.3288 69.2217 40.7983C69.3013 40.2677 69.3411 39.8433 69.3411 39.525V37.4161C69.1024 37.6283 68.8106 37.8008 68.4657 37.9334C68.1209 38.0395 67.7362 38.1323 67.3118 38.2119C66.8874 38.2915 66.4497 38.3578 65.9987 38.4109C65.5478 38.4639 65.0968 38.5302 64.6459 38.6098C64.1949 38.6894 63.7705 38.7955 63.3726 38.9281C62.9747 39.0608 62.6166 39.2465 62.2983 39.4852C62.0065 39.6974 61.7677 39.976 61.582 40.3208C61.3964 40.6656 61.3035 41.1033 61.3035 41.6339C61.3035 42.1644 61.3964 42.6021 61.582 42.9469C61.7677 43.2653 62.0197 43.5305 62.338 43.7427C62.6564 43.9284 63.0277 44.0611 63.4522 44.1406C63.8766 44.2202 64.3143 44.26 64.7652 44.26Z" fill="black"/>
<path d="M79.3769 26.9116H84.7883V40.8381L92.5474 26.9116H98.9536V47.483H93.5422V33.5565L85.7831 47.483H79.3769V26.9116Z" fill="black"/>
<path d="M108.249 31.1691H101.485V26.9116H120.663V31.1691H113.899V47.483H108.249V31.1691Z" fill="black"/>
<path d="M123.208 26.9116H128.62V40.8381L136.379 26.9116H142.785V47.483H137.373V33.5565L129.614 47.483H123.208V26.9116Z" fill="black"/>
<path fill-rule="evenodd" clip-rule="evenodd" d="M80.3755 0H84.8266V4.45106H80.3755V0ZM93.7283 0H98.1793V4.45106H93.7283V0ZM84.8266 14.5898H80.3755V19.0409H82.6011V21.2664H87.0521V16.8153H84.8266V14.5898ZM91.5033 16.8153H87.0522V21.2664H91.5033V16.8153ZM95.9544 19.0409H98.1793V14.5898H93.7283V16.8153H91.5034V21.2664H95.9544V19.0409Z" fill="black"/>
<path fill-rule="evenodd" clip-rule="evenodd" d="M2.06052 0H4.36109V1.17918V2.12229H4.36202V1.17918V0H6.71963H6.72011H9.07772V0.119533H9.07791V0H11.3781H11.3785H13.7362V0.119533H13.7364V0H16.0945V0.119533H16.0946V0H18.3952V0.119533H18.3955V0H20.7524H20.7536H23.053V0.119533H23.0533V0H25.4114V0.119533H25.4122V0H27.7128V2.41685H27.7127V4.37685H25.5579V20.6909H19.9077V4.37704H12.3079V16.4464H13.0659H13.0664H15.4329V17.8381V19.299V20.6907H13.0664H13.0659H12.3079V20.6909H6.65771V20.6907H6.08083V19.299V17.8381V16.4464H6.65771V4.37707H3.91098V5.60017H2.30057V7.95813H0V5.60017V5.54128V1.59173H2.06052V1.17918V0ZM6.08016 17.8381H6.0803V20.6907H3.71331V19.2991H3.71317V16.4466H6.08016V17.8381Z" fill="black"/>
<path fill-rule="evenodd" clip-rule="evenodd" d="M8.41095 28.0342H13.1198V30.3887H15.4735H15.4739V28.0342H20.1828V30.3887H22.5378V32.7431H24.8921V37.452H22.5378V39.9242H20.1828V42.2787H17.8291V44.6332H16.6513V46.1637H11.9424V44.6332H10.7646V42.2787H8.41095V39.9242H6.05597V37.5698H3.70166V32.8609H6.05597V30.5064H8.41095V28.0342ZM20.1828 35.0976H20.1832V35.2153H20.1828V35.0976ZM15.4739 37.452V37.3342H15.4735V37.452H15.4739ZM8.41095 35.2153V35.2153H8.41055V35.2153H8.41095Z" fill="black"/>
<path fill-rule="evenodd" clip-rule="evenodd" d="M32.6946 26.4473H30.1372V28.3652H28.8584V30.9226H30.9599V30.9227H30.1372V33.48H32.1865V33.4801H31.4154V36.0375H32.6942V38.5947H33.9731V41.1521H36.3029V41.1521H35.2519V43.7095H36.3029V43.727H36.5301V46.2669H39.0874V43.727H39.0884V44.9882H41.6457V43.0439H42.9242V44.9882H44.2017V46.2669H46.7591V43.7096H45.4816V42.4309H44.2027V42.4308V41.2223H45.5166V39.8734H48.0386V37.316H45.499V36.0374H45.4816H42.9242H42.9239V33.4801H40.3669V32.2013H38.6677V32.1662H37.8093V29.6441H35.2519V30.8527H35.2516V28.3652H32.6946V26.4473ZM41.6454 42.4308H40.9447V42.4309H41.6454V42.4308ZM35.2519 38.5947H35.2516V37.3335H35.2519V38.5947ZM34.0259 36.0374V36.0199H33.9728V36.0374H34.0259Z" fill="black"/>
</g>
<defs>
<clipPath id="clip0_325_1716">
<rect width="143" height="48" fill="white"/>
</clipPath>
</defs>
</svg>
