<?xml version="1.0" encoding="UTF-8"?> <svg xmlns="http://www.w3.org/2000/svg" width="126" height="41" viewBox="0 0 126 41" fill="none"><path fill-rule="evenodd" clip-rule="evenodd" d="M117.559 30.813C118.37 31.2518 119.281 31.4711 120.292 31.4711C121.293 31.4711 122.199 31.2518 123.01 30.813C123.821 30.3647 124.455 29.7542 124.913 28.9816C125.371 28.1995 125.6 27.322 125.6 26.3491C125.6 25.3762 125.371 24.5034 124.913 23.7308C124.455 22.9487 123.821 22.3382 123.01 21.8994C122.199 21.4511 121.293 21.227 120.292 21.227C119.281 21.227 118.37 21.4511 117.559 21.8994C116.748 22.3382 116.109 22.9487 115.642 23.7308C115.184 24.5129 114.955 25.3857 114.955 26.3491C114.955 27.3124 115.184 28.1852 115.642 28.9673C116.109 29.7495 116.748 30.3647 117.559 30.813ZM122.266 29.697C121.684 30.0309 121.026 30.1978 120.292 30.1978C119.557 30.1978 118.89 30.0309 118.289 29.697C117.697 29.3632 117.23 28.9053 116.887 28.3235C116.553 27.7321 116.386 27.074 116.386 26.3491C116.386 25.6242 116.553 24.9708 116.887 24.3889C117.23 23.7976 117.697 23.335 118.289 23.0011C118.89 22.6673 119.557 22.5004 120.292 22.5004C121.026 22.5004 121.684 22.6673 122.266 23.0011C122.858 23.335 123.32 23.7976 123.654 24.3889C123.997 24.9708 124.169 25.6242 124.169 26.3491C124.169 27.074 123.997 27.7321 123.654 28.3235C123.32 28.9053 122.858 29.3632 122.266 29.697ZM109.887 22.5863H115.038L115.052 21.3416H108.485V31.3568H109.901L109.887 22.5863ZM105.952 30.1121V31.3568H98.6838V21.3416H105.752V22.5863H100.115V25.6624H105.137V26.8786H100.115V30.1121H105.952ZM94.9193 30.1121V21.3416H93.5172V30.1121H93.4886H89.3537V21.3416H87.9516V30.1121H83.7881V21.3416H82.3717V31.3568H93.4886H94.9193H95.1053V33.5459H96.4216V30.1121H94.9193ZM80.601 21.3416L76.1514 29.597C75.7984 30.2551 75.3835 30.7464 74.9066 31.0707C74.4297 31.395 73.9099 31.5571 73.3471 31.5571C72.9083 31.5571 72.46 31.457 72.0022 31.2567L72.3742 30.1121C72.7271 30.2361 73.0419 30.2981 73.3185 30.2981C73.948 30.2981 74.4679 29.9642 74.878 29.2965L75.1069 28.9388L71.0722 21.3416H72.6031L75.8509 27.6941L79.1846 21.3416H80.601ZM70.1606 33.5459V30.1121H68.6869V21.3416H61.6476L61.5475 24.5608C61.4903 26.3063 61.3329 27.6607 61.0753 28.6241C60.8178 29.5779 60.3743 30.0739 59.7447 30.1121H59.2583L59.244 33.5459H60.5746L60.5889 31.3568H68.83V33.5459H70.1606ZM62.4632 28.1949C62.6444 27.2696 62.7588 26.1012 62.8065 24.6895L62.8781 22.5863H67.2705V30.1121H61.619C62.0101 29.7591 62.2915 29.1201 62.4632 28.1949ZM58.9726 21.3416L54.523 29.597C54.17 30.2551 53.7551 30.7464 53.2782 31.0707C52.8013 31.395 52.2814 31.5571 51.7187 31.5571C51.2799 31.5571 50.8316 31.457 50.3738 31.2567L50.7458 30.1121C51.0987 30.2361 51.4135 30.2981 51.6901 30.2981C52.3196 30.2981 52.8394 29.9642 53.2496 29.2965L53.4785 28.9388L49.4438 21.3416H50.9747L54.2225 27.6941L57.5561 21.3416H58.9726ZM47.9127 21.3416H40.3584V31.3568H44.6506C45.9002 31.3568 46.8588 31.0945 47.5264 30.5699C48.2037 30.0453 48.5423 29.2918 48.5423 28.3093C48.5423 27.3746 48.2323 26.6592 47.6123 26.1632C46.9923 25.6672 46.0862 25.4192 44.8939 25.4192H41.7748V22.5577H47.9127V21.3416ZM46.4677 29.7544C46.0385 30.0691 45.4137 30.2265 44.5934 30.2265H41.7748V26.5495H44.5934C46.2722 26.5495 47.1115 27.1552 47.1115 28.3665C47.1115 28.977 46.8969 29.4396 46.4677 29.7544Z" fill="white"></path><path fill-rule="evenodd" clip-rule="evenodd" d="M50.0156 15.2246C50.9408 14.471 51.4034 13.4314 51.4034 12.1055C51.4034 10.7893 50.9361 9.75434 50.0013 9.00082C49.0761 8.23775 47.7741 7.82283 46.0954 7.75607V6.74023H44.7648V7.75607C43.0765 7.82283 41.765 8.23298 40.8302 8.98651C39.905 9.74004 39.4424 10.7797 39.4424 12.1055C39.4424 13.4218 39.905 14.4567 40.8302 15.2103C41.765 15.9638 43.0765 16.3739 44.7648 16.4407V17.4995H46.0954V16.4407C47.7836 16.3835 49.0904 15.9781 50.0156 15.2246ZM49.0141 14.3947C48.3464 14.9384 47.3735 15.2484 46.0954 15.3247V8.88636C47.3544 8.96266 48.3226 9.27743 48.9998 9.83065C49.6865 10.3743 50.0299 11.1279 50.0299 12.0912C50.0299 13.0737 49.6913 13.8415 49.0141 14.3947ZM41.846 14.3947C41.1688 13.8415 40.8302 13.0784 40.8302 12.1055C40.8302 11.1231 41.164 10.36 41.8317 9.81634C42.509 9.27266 43.4866 8.96266 44.7648 8.88636V15.3247C43.5057 15.2484 42.5328 14.9384 41.846 14.3947ZM58.9689 17.2418C57.9578 17.2418 57.0469 17.0224 56.2361 16.5837C55.4254 16.1354 54.7863 15.5202 54.3189 14.738C53.8611 13.9559 53.6322 13.0831 53.6322 12.1198C53.6322 11.1564 53.8611 10.2836 54.3189 9.50148C54.7863 8.71934 55.4254 8.10889 56.2361 7.67012C57.0469 7.22182 57.9578 6.99767 58.9689 6.99767C59.9704 6.99767 60.8765 7.22182 61.6873 7.67012C62.498 8.10889 63.1323 8.71934 63.5902 9.50148C64.048 10.2741 64.2769 11.1468 64.2769 12.1198C64.2769 13.0927 64.048 13.9702 63.5902 14.7523C63.1323 15.5249 62.498 16.1354 61.6873 16.5837C60.8765 17.0224 59.9704 17.2418 58.9689 17.2418ZM58.9689 15.9685C59.7033 15.9685 60.3615 15.8015 60.9433 15.4677C61.5347 15.1339 61.9973 14.676 62.3311 14.0942C62.6745 13.5028 62.8462 12.8447 62.8462 12.1198C62.8462 11.3948 62.6745 10.7415 62.3311 10.1596C61.9973 9.56825 61.5347 9.10564 60.9433 8.7718C60.3615 8.43796 59.7033 8.27104 58.9689 8.27104C58.2344 8.27104 57.5667 8.43796 56.9658 8.7718C56.3744 9.10564 55.9071 9.56825 55.5637 10.1596C55.2298 10.7415 55.0629 11.3948 55.0629 12.1198C55.0629 12.8447 55.2298 13.5028 55.5637 14.0942C55.9071 14.676 56.3744 15.1339 56.9658 15.4677C57.5667 15.8015 58.2344 15.9685 58.9689 15.9685ZM74.4162 8.04224C73.6722 7.42225 72.6516 7.11225 71.3544 7.11225H67.4485V17.1275H68.8792V14.0943H71.3544C72.6516 14.0943 73.6722 13.7843 74.4162 13.1643C75.1602 12.5443 75.5322 11.6906 75.5322 10.6033C75.5322 9.51591 75.1602 8.66223 74.4162 8.04224ZM73.3861 12.2773C72.9092 12.6588 72.2176 12.8496 71.3115 12.8496H68.8792V8.357H71.3115C72.2176 8.357 72.9092 8.55254 73.3861 8.94361C73.863 9.32514 74.1014 9.87836 74.1014 10.6033C74.1014 11.3282 73.863 11.8862 73.3861 12.2773ZM87.6663 17.1275L87.652 9.83067L84.0322 15.9114H83.3741L79.7543 9.8736V17.1275H78.3808V7.11225H79.554L83.7318 14.1515L87.8523 7.11225H89.0256L89.0399 17.1275H87.6663ZM96.7643 15.3677L101.214 7.11225H99.7975L96.4638 13.4648L93.216 7.11225H91.6851L95.7199 14.7095L95.4909 15.0672C95.0808 15.7349 94.5609 16.0687 93.9314 16.0687C93.6548 16.0687 93.34 16.0067 92.9871 15.8827L92.6151 17.0273C93.073 17.2276 93.5213 17.3278 93.96 17.3278C94.5228 17.3278 95.0426 17.1656 95.5195 16.8413C95.9965 16.517 96.4114 16.0258 96.7643 15.3677ZM111.615 7.11225V17.1275H110.213V8.357H105.778L105.678 11.29C105.63 12.6731 105.515 13.7938 105.334 14.6523C105.162 15.5107 104.886 16.1594 104.504 16.5981C104.123 17.0273 103.608 17.2419 102.959 17.2419C102.663 17.2419 102.363 17.2038 102.058 17.1275L102.158 15.8541C102.31 15.8923 102.463 15.9114 102.616 15.9114C103.026 15.9114 103.355 15.7492 103.603 15.4249C103.851 15.0911 104.037 14.5951 104.161 13.9369C104.285 13.2788 104.366 12.4108 104.404 11.333L104.562 7.11225H111.615ZM116.781 14.6237L115.679 17.1275H114.205L118.741 7.11225H120.157L124.707 17.1275H123.205L122.103 14.6237H116.781ZM121.602 13.4791L119.442 8.57161L117.281 13.4791H121.602Z" fill="white"></path><path fill-rule="evenodd" clip-rule="evenodd" d="M1.30102 12.1107C1.30102 6.14451 6.19786 1.29758 12.2513 1.29758C18.1578 1.29758 22.9631 5.91201 23.193 11.6782H13.785C13.5618 11.0482 12.9594 10.5969 12.2513 10.5969C11.3531 10.5969 10.625 11.323 10.625 12.2188C10.625 12.8839 11.0264 13.4556 11.6008 13.7058V22.9051C5.85089 22.5726 1.30102 17.8616 1.30102 12.1107ZM18.237 12.9758C19.7891 13.6821 21.2179 14.6641 22.4476 15.8904C22.4636 15.9064 22.4796 15.9224 22.4955 15.9385C22.8532 15.0054 23.084 14.011 23.167 12.9758H18.237ZM24.4719 12.9758C24.37 14.4035 24.0179 15.7626 23.4587 17.0105C25.5275 19.559 26.671 22.7505 26.671 26.0596C26.671 29.8738 25.1518 33.5318 22.4476 36.2289C19.7433 38.9259 16.0756 40.4411 12.2513 40.4411H11.6008V24.2046C5.14213 23.8704 0 18.5889 0 12.1107C0 5.41642 5.49087 0 12.2513 0C18.8655 0 24.2645 5.18465 24.4949 11.6782H27.5273L26.359 10.513C26.105 10.2596 26.105 9.8488 26.359 9.59543C26.6131 9.34207 27.0249 9.34207 27.279 9.59543L29.5161 11.8266C29.6482 11.9583 29.7116 12.1325 29.7063 12.3051C29.7066 12.3123 29.7067 12.3196 29.7067 12.327C29.7067 12.3322 29.7066 12.3374 29.7065 12.3427C29.7064 12.3483 29.7062 12.3539 29.7059 12.3594C29.7148 12.5362 29.6516 12.716 29.5162 12.8511L27.2791 15.0823C27.025 15.3356 26.6132 15.3356 26.3591 15.0823C26.1051 14.8289 26.1051 14.4181 26.3591 14.1647L27.5513 12.9758H24.4719ZM13.6481 13.0501C13.4748 13.3391 13.2138 13.5699 12.9018 13.7058V22.9051C16.81 22.6791 20.1638 20.4303 21.9113 17.2071C21.7865 17.0716 21.6586 16.9385 21.5276 16.8079C19.3988 14.6848 16.6138 13.3667 13.6481 13.0501ZM22.7975 18.2779C24.4582 20.5166 25.37 23.2412 25.37 26.0596C25.37 29.5297 23.9878 32.8576 21.5276 35.3113C19.2211 37.6117 16.1443 38.967 12.9018 39.1274L12.9018 24.2046C17.1142 23.9867 20.7665 21.6643 22.7975 18.2779Z" fill="#40BA21"></path></svg> 